<?xml version="1.0" encoding="UTF-8" standalone="no"?>
<!-- Created with Inkscape (http://www.inkscape.org/) -->
<svg
   xmlns:dc="http://purl.org/dc/elements/1.1/"
   xmlns:cc="http://creativecommons.org/ns#"
   xmlns:rdf="http://www.w3.org/1999/02/22-rdf-syntax-ns#"
   xmlns:svg="http://www.w3.org/2000/svg"
   xmlns="http://www.w3.org/2000/svg"
   xmlns:xlink="http://www.w3.org/1999/xlink"
   xmlns:sodipodi="http://sodipodi.sourceforge.net/DTD/sodipodi-0.dtd"
   xmlns:inkscape="http://www.inkscape.org/namespaces/inkscape"
   height="387.53467"
   width="935.53345"
   id="svg2"
   sodipodi:version="0.32"
   inkscape:version="0.45+devel"
   version="1.0"
   sodipodi:docname="koliberek_Key.svg"
   inkscape:output_extension="org.inkscape.output.svg.inkscape">
  <defs
     id="defs4">
    <filter
       id="filter3252"
       inkscape:collect="always">
      <feGaussianBlur
         id="feGaussianBlur3254"
         stdDeviation="1.1789063"
         inkscape:collect="always" />
    </filter>
    <filter
       id="filter3208"
       inkscape:collect="always">
      <feGaussianBlur
         id="feGaussianBlur3210"
         stdDeviation="1.14875"
         inkscape:collect="always" />
    </filter>
    <filter
       id="filter3148"
       inkscape:collect="always">
      <feGaussianBlur
         id="feGaussianBlur3150"
         stdDeviation="1.4028125"
         inkscape:collect="always" />
    </filter>
    <filter
       id="filter3135"
       inkscape:collect="always">
      <feGaussianBlur
         id="feGaussianBlur3137"
         stdDeviation="2.8346875"
         inkscape:collect="always" />
    </filter>
    <linearGradient
       gradientTransform="translate(-6.9551821,-150.69561)"
       gradientUnits="userSpaceOnUse"
       y2="462.91049"
       x2="423.1069"
       y1="547.53186"
       x1="428.3233"
       id="linearGradient3112"
       xlink:href="#linearGradient3106"
       inkscape:collect="always" />
    <linearGradient
       id="linearGradient3106"
       inkscape:collect="always">
      <stop
         id="stop3108"
         offset="0"
         style="stop-color:#000000;stop-opacity:1;" />
      <stop
         id="stop3110"
         offset="1"
         style="stop-color:#000000;stop-opacity:0;" />
    </linearGradient>
  </defs>
  <sodipodi:namedview
     id="base"
     pagecolor="#ffffff"
     bordercolor="#666666"
     borderopacity="1.0"
     inkscape:pageopacity="0.0"
     inkscape:pageshadow="2"
     inkscape:cx="372.04724"
     inkscape:cy="526.18109"
     inkscape:zoom="0.72028434"
     inkscape:document-units="px"
     inkscape:current-layer="layer1"
     showgrid="false"
     inkscape:window-width="1280"
     inkscape:window-height="977"
     inkscape:window-x="35"
     inkscape:window-y="0" />
  <metadata
     id="metadata7">
    <rdf:RDF>
      <cc:Work
         rdf:about="">
        <dc:format>image/svg+xml</dc:format>
        <dc:type
           rdf:resource="http://purl.org/dc/dcmitype/StillImage" />
      </cc:Work>
    </rdf:RDF>
  </metadata>
  <g
     inkscape:groupmode="layer"
     inkscape:label="Warstwa 1"
     id="layer1"
     transform="translate(-58.414374,-178.2799)">
    <g
       id="g2346"
       inkscape:label="Warstwa 1"
       transform="matrix(2.1165915,0,0,2.1165915,-102.64501,-421.37693)">
      <path
         sodipodi:nodetypes="csscccccccccccccccccccccccccsssc"
         id="path2907"
         d="M 173.53125,283.5625 C 119.88577,283.5625 76.343747,324.44901 76.34375,374.84375 C 76.34375,425.2385 119.88576,466.15625 173.53125,466.15625 C 213.81729,466.15625 248.3963,443.08589 263.125,410.25 L 288.375,410.25 C 288.71173,392.36195 287.68488,394.8125 287.68488,394.8125 L 308.56248,403.05815 L 310.6875,403.05819 L 321.0625,387.625 L 330.53341,401.90902 L 333.59526,402.0173 L 346.25,388.15625 L 365.57558,405.20633 L 373.97779,405.21499 L 396.0625,387.625 L 410.87169,403.73082 L 414.2741,403.59965 L 423.8125,396.875 L 436.94213,401.89316 L 448.50957,401.35545 L 463.34375,385.59375 L 474.55265,399.97598 L 481.49036,399.97639 L 517.84375,352.84375 L 517.84375,339.4375 L 263.125,339.4375 C 248.3963,306.61039 213.81729,283.5625 173.53125,283.5625 z M 127.15625,349.4375 C 141.19262,349.43749 152.5625,360.83863 152.5625,374.875 C 152.5625,388.91137 141.19262,400.28125 127.15625,400.28125 C 113.11988,400.28126 101.71875,388.88012 101.71875,374.84375 C 101.71875,360.80738 113.11988,349.4375 127.15625,349.4375 z"
         style="fill:#ffcc00;fill-opacity:1;stroke:#000000;stroke-width:0.5;stroke-linecap:round;stroke-linejoin:round;stroke-miterlimit:4;stroke-dasharray:none;stroke-opacity:1" />
      <rect
         y="347.76212"
         x="268.09952"
         height="7.6530967"
         width="236.01192"
         id="rect2918"
         style="fill:#d4aa00;fill-opacity:1;stroke:#000000;stroke-width:0.49999997;stroke-linecap:round;stroke-linejoin:round;stroke-miterlimit:4;stroke-dasharray:none;stroke-opacity:1" />
      <rect
         style="fill:#d4aa00;fill-opacity:1;stroke:#000000;stroke-width:0.49999997;stroke-linecap:round;stroke-linejoin:round;stroke-miterlimit:4;stroke-dasharray:none;stroke-opacity:1"
         id="rect2920"
         width="223.84035"
         height="7.6530967"
         x="268.09952"
         y="364.67529" />
      <path
         id="path3126"
         d="M 517.27419,337.70247 L 517.27419,348.79622 L 480.89919,395.92122 L 473.96169,395.92122 L 462.77419,381.54622 L 447.93044,397.29622 L 436.36794,397.82747 L 423.24294,392.82747 L 413.68044,399.54622 L 410.30544,399.67122 L 395.49294,383.57747 L 373.39919,401.17122 L 364.99294,401.13997 L 345.68044,384.10872 L 333.02419,397.95247 L 329.96169,397.85872 L 320.49294,383.57747 L 310.11794,399.01497 L 307.99294,399.01497 L 287.36794,390.85872 C 287.64424,391.57743 288.02326,394.63113 287.80544,406.20247 L 262.55544,406.20247 C 247.82674,439.03836 213.24773,462.10871 172.96169,462.10872 C 127.39123,462.10872 89.109579,432.5765 78.617939,392.79622 C 88.217139,433.73263 127.08008,464.42122 173.52419,464.42122 C 213.81023,464.42124 248.38924,441.35086 263.11794,408.51497 L 288.36794,408.51497 C 288.5784,397.33495 288.26418,394.08798 287.99294,393.23372 L 308.55544,401.32747 L 310.68044,401.32747 L 321.05544,385.88997 L 330.52419,400.17122 L 333.58669,400.26497 L 346.24294,386.42122 L 365.58669,403.45247 L 373.99294,403.48372 L 396.05544,385.88997 L 410.86794,401.98372 L 414.27419,401.85872 L 423.80544,395.13997 L 436.93044,400.13997 L 448.52419,399.60872 L 463.33669,383.85872 L 474.55544,398.23372 L 481.49294,398.23372 L 517.83669,351.10872 L 517.83669,337.70247 L 517.27419,337.70247 z M 126.58669,345.38997 C 112.55032,345.38997 101.14919,356.75984 101.14919,370.79622 C 101.14919,373.38343 101.52314,375.88047 102.24294,378.23372 C 101.90378,376.57865 101.71169,374.86327 101.71169,373.10872 C 101.71169,359.07237 113.11282,347.70247 127.14919,347.70247 C 138.55374,347.70248 148.21479,355.22623 151.43044,365.57747 C 149.01452,354.05406 138.82442,345.38996 126.58669,345.38997 z"
         style="fill:#000000;fill-opacity:1;stroke:#000000;stroke-width:0.5;stroke-linecap:round;stroke-linejoin:round;stroke-miterlimit:4;stroke-dasharray:none;stroke-opacity:1;filter:url(#filter3135)" />
      <path
         id="path3139"
         d="M 173.53125,283.5625 C 119.88577,283.56249 76.34375,324.44901 76.34375,374.84375 C 76.34375,381.1431 77.017122,387.30822 78.3125,393.25 C 77.394539,388.21299 76.9375,383.03138 76.9375,377.75 C 76.9375,327.35526 120.47953,286.46875 174.125,286.46875 C 214.41104,286.46875 248.99004,309.51664 263.71875,342.34375 L 517.84375,342.34375 L 517.84375,339.4375 L 263.125,339.4375 C 248.39631,306.61041 213.81729,283.5625 173.53125,283.5625 z M 152.34375,371.4375 C 152.49562,372.56188 152.5625,373.70924 152.5625,374.875 C 152.5625,388.91139 141.19262,400.28125 127.15625,400.28125 C 115.33744,400.28128 105.41159,392.21471 102.5625,381.28125 C 104.28499,393.64884 114.9123,403.18751 127.75,403.1875 C 141.78637,403.1875 153.15626,391.81762 153.15625,377.78125 C 153.15625,375.58807 152.86572,373.46857 152.34375,371.4375 z"
         style="fill:#ffffff;fill-opacity:1;stroke:none;stroke-width:0.5;stroke-linecap:round;stroke-linejoin:round;stroke-miterlimit:4;stroke-dasharray:none;stroke-opacity:1;filter:url(#filter3148)" />
      <path
         id="path3171"
         d="M 190.99738,294.92188 C 188.9617,295.29507 187.04138,296.27335 185.52863,297.73438 C 183.45989,299.73238 182.30738,302.48332 182.30988,305.35938 L 182.30988,443.89063 C 182.30626,446.71633 183.4312,449.41686 185.40363,451.39063 C 184.5282,449.83021 184.02628,448.07198 184.02863,446.23438 L 184.02863,307.70313 C 184.02613,304.82707 185.17864,302.07613 187.24738,300.07813 C 188.32366,299.03864 189.61371,298.24107 190.99738,297.73438 L 190.99738,294.92188 z M 195.62238,295.10938 L 195.62238,454.14063 C 196.20264,453.99988 196.76681,453.85499 197.34113,453.70313 L 197.34113,297.45313 C 199.90114,298.07356 202.41512,298.81293 204.87238,299.64063 L 204.87238,297.89063 C 201.85982,296.81261 198.78628,295.87617 195.62238,295.10938 z M 209.49738,299.67188 L 209.49738,449.57813 C 210.08043,449.3326 210.63915,449.08536 211.21613,448.82813 L 211.21613,302.01563 C 213.79043,303.09887 216.30945,304.27481 218.74738,305.57813 L 218.74738,304.20313 C 215.78,302.5317 212.68192,301.01191 209.49738,299.67188 z M 223.37238,307.01563 L 223.37238,442.23438 C 223.95129,441.85985 224.52301,441.49705 225.09113,441.10938 L 225.09113,309.35938 C 227.71104,311.05358 230.22162,312.85665 232.62238,314.79688 L 232.62238,313.89063 C 229.71106,311.4087 226.62359,309.11807 223.37238,307.01563 z M 237.24738,318.17188 L 237.24738,431.07813 C 237.83392,430.4984 238.39593,429.92347 238.96613,429.32813 L 238.96613,320.51563 C 241.50263,323.02135 243.89578,325.64265 246.09113,328.42188 C 243.43589,324.78633 240.47574,321.36107 237.24738,318.17188 z M 246.09113,328.42188 C 246.22898,328.59639 246.36107,328.77751 246.49738,328.95313 L 246.49738,328.92188 C 246.37254,328.74782 246.21749,328.5949 246.09113,328.42188 z M 251.12238,336.20313 L 251.12238,413.01563 C 251.72481,411.95297 252.28743,410.88611 252.84113,409.79688 L 252.84113,339.45313 C 252.28743,338.36415 251.72481,337.2654 251.12238,336.20313 z"
         style="fill:#808080;fill-opacity:1;stroke:none;stroke-width:0.5;stroke-linecap:round;stroke-linejoin:round;stroke-miterlimit:4;stroke-dasharray:none;stroke-opacity:1;filter:url(#filter3208)" />
      <path
         id="path3166"
         d="M 191.49738,295.42188 C 190.48913,295.60672 189.50728,295.95504 188.59113,296.42188 L 188.59113,452.48438 C 187.48969,452.28265 186.42763,451.89706 185.43488,451.35938 C 185.85994,451.84462 186.32572,452.29623 186.84113,452.70313 C 188.21534,453.78804 189.81817,454.48933 191.49738,454.79688 L 191.49738,295.42188 z M 202.46613,297.42188 L 202.46613,449.54688 C 200.38657,450.29166 198.26954,450.97836 196.12238,451.57813 L 196.12238,454.64063 C 199.28651,453.87311 202.35962,452.93837 205.37238,451.85938 L 205.37238,298.39063 C 204.41379,298.0476 203.43801,297.73533 202.46613,297.42188 z M 216.34113,303.14063 L 216.34113,443.23438 C 214.28401,444.3939 212.1654,445.48101 209.99738,446.48438 L 209.99738,450.07813 C 213.18191,448.73711 216.28002,447.21947 219.24738,445.54688 L 219.24738,304.70313 C 218.29301,304.16555 217.32107,303.64589 216.34113,303.14063 z M 230.21613,312.07813 L 230.21613,433.51563 C 228.1888,435.24497 226.06448,436.87032 223.87238,438.42188 L 223.87238,442.73438 C 227.12594,440.62949 230.20916,438.31314 233.12238,435.82813 L 233.12238,314.39063 C 232.17943,313.58674 231.19562,312.84198 230.21613,312.07813 z M 237.74738,318.67188 L 237.74738,319.35938 C 240.02627,321.82311 242.14596,324.39719 244.09113,327.10938 L 244.09113,418.48438 C 242.14969,421.19252 240.02135,423.76602 237.74738,426.23438 L 237.74738,431.57813 C 241.12938,428.23541 244.24935,424.63014 246.99738,420.79688 L 246.99738,329.42188 C 244.24935,325.59024 241.12938,322.01284 237.74738,318.67188 z M 251.62238,336.70313 L 251.62238,340.01563 C 256.3215,350.07489 258.93488,361.16574 258.93488,372.79688 C 258.93488,384.4282 256.32148,395.51738 251.62238,405.57813 L 251.62238,413.51563 C 258.13418,402.02908 261.84113,388.95223 261.84113,375.10938 C 261.84114,361.26678 258.13421,348.18552 251.62238,336.70313 z"
         style="fill:#ffdd55;fill-opacity:1;stroke:none;stroke-width:0.5;stroke-linecap:round;stroke-linejoin:round;stroke-miterlimit:4;stroke-dasharray:none;stroke-opacity:1;filter:url(#filter3252)" />
    </g>
  </g>
</svg>
